<svg xmlns="http://www.w3.org/2000/svg" viewBox="0 0 64 64">
  <defs>
    <linearGradient id="sharkGradient" x1="0" y1="0" x2="1" y2="1">
      <stop offset="0%" stop-color="#f59e0b" />
      <stop offset="100%" stop-color="#dc2626" />
    </linearGradient>
  </defs>
  <rect width="64" height="64" fill="none" />
  <path d="M12 34C18 24 30 19 39 19C47 19 56 24 60 31C58 29 51 27 45 27C39 27 35 29 30 31C25 33 20 33 16 31C14 26 15 20 20 15C24 13 28 16 32 20C36 24 40 26 45 27C50 28 56 33 58 38C54 37 44 34 38 34C33 34 27 37 21 40C18 41 14 44 12 45C10 43 8 41 12 34Z" fill="#0c121d" stroke="url(#sharkGradient)" stroke-width="2" />
  <path d="M17 31C16.4 29.6 14.8 26 12 25C12.8 27.5 13.5 30.4 17 31Z" fill="#ffffff" opacity="0.95" />
</svg>